
<svg width="32" height="32" viewBox="0 0 32 32" fill="none" xmlns="http://www.w3.org/2000/svg">
  <!-- Dark background -->
  <rect width="32" height="32" rx="6" fill="#091428"/>
  
  <!-- Brain design based on provided image -->
  <path d="M21.5,10c-0.83-0.83-1.92-1.28-3.08-1.28c-0.33,0-0.67,0.03-1,0.1c-0.83-1.12-2.17-1.8-3.58-1.8
  c-1.25,0-2.42,0.5-3.25,1.33c-1.92,0.33-3.42,2-3.42,4c0,0.75,0.25,1.42,0.58,2c-0.33,0.5-0.58,1.17-0.58,1.83
  c0,1.58,1.17,2.92,2.67,3.25c0.25,0.75,0.67,1.42,1.25,2c0.83,0.83,2,1.33,3.25,1.33c0.83,0,1.58-0.25,2.25-0.58
  c0.67,0.33,1.42,0.58,2.25,0.58c2.5,0,4.5-2,4.5-4.5c0-0.83-0.25-1.67-0.67-2.33c0.42-0.67,0.67-1.5,0.67-2.33
  C23.33,11.92,22.58,10.75,21.5,10z" fill="#0082C8"/>
  
  <!-- Circuit-like details -->
  <path d="M16.5,17.5c0,0,2-1.5,0-3c-2-1.5,0-3,0-3" stroke="#00B4FF" stroke-width="1" stroke-linecap="round"/>
  <path d="M13.5,12c0,0-2,0.5-2,2s1,2,2,3c1,1,1,2.5-0.5,3.5" stroke="#00B4FF" stroke-width="1" stroke-linecap="round"/>
  
  <!-- Glow effect -->
  <circle cx="16" cy="16" r="10" fill="url(#paint0_radial)"/>
  
  <defs>
    <radialGradient id="paint0_radial" cx="0" cy="0" r="1" gradientUnits="userSpaceOnUse" gradientTransform="translate(16 16) rotate(90) scale(10)">
      <stop stop-color="#0097FB" stop-opacity="0.3"/>
      <stop offset="1" stop-color="#0097FB" stop-opacity="0"/>
    </radialGradient>
  </defs>
</svg>
