<?xml version="1.0" encoding="UTF-8"?>
<svg id="Layer_1" data-name="Layer 1" xmlns="http://www.w3.org/2000/svg" viewBox="0 0 2660.93 687.7">
  <defs>
    <style>
      .cls-1 {
        fill: #14a2dc;
      }

      .cls-2 {
        fill: #fff;
      }

      .cls-3 {
        fill: #00aeef;
      }
    </style>
  </defs>
  <path class="cls-2" d="M780.93,261.41h61.74c49.76,0,84.14,34.16,84.14,78.71v.45c0,44.56-34.38,79.16-84.14,79.16h-61.74v-158.32ZM815.76,292.85v95.45h26.91c28.27,0,47.72-19.22,47.72-47.27v-.45c0-28.04-19.45-47.72-47.72-47.72h-26.91Z"/>
  <path class="cls-2" d="M955.53,261.41h72.38c20.13,0,35.52,5.44,46.14,16.06,9.05,9.05,13.57,21.03,13.57,36.19v.45c0,25.56-13.8,41.62-33.93,49.08l38.68,56.54h-40.71l-33.93-50.66h-27.36v50.66h-34.84v-158.32ZM1025.65,338.31c17.19,0,26.69-8.82,26.69-22.39v-.45c0-15.15-10.18-22.62-27.37-22.62h-34.6v45.46h35.28Z"/>
  <path class="cls-2" d="M1155.71,357.32l-60.85-95.9h40.71l37.77,63.56,38.45-63.56h39.58l-60.84,95.23v63.1h-34.83v-62.42Z"/>
  <path class="cls-2" d="M1329.41,341.02v-.45c0-45.01,35.06-81.87,83-81.87,28.28,0,45.91,7.69,62.2,21.71l-21.93,26.46c-11.99-10.18-23.3-16.06-41.39-16.06-25.33,0-45.46,22.39-45.46,49.3v.45c0,28.95,19.9,50.21,47.95,50.21,12.89,0,23.97-3.17,32.8-9.5v-22.62h-35.06v-30.08h68.76v68.76c-16.28,13.8-38.68,25.11-67.63,25.11-49.3,0-83.23-34.39-83.23-81.43Z"/>
  <path class="cls-2" d="M1511.49,261.41h72.38c20.12,0,35.51,5.44,46.14,16.06,9.05,9.05,13.57,21.03,13.57,36.19v.45c0,25.56-13.8,41.62-33.92,49.08l38.68,56.54h-40.71l-33.93-50.66h-27.36v50.66h-34.83v-158.32ZM1581.6,338.31c17.19,0,26.69-8.82,26.69-22.39v-.45c0-15.15-10.18-22.62-27.37-22.62h-34.6v45.46h35.28Z"/>
  <path class="cls-2" d="M1665.74,341.02v-.45c0-45.01,35.51-81.87,84.36-81.87s83.91,36.42,83.91,81.42v.45c0,45.01-35.51,81.88-84.36,81.88s-83.91-36.42-83.91-81.43ZM1797.6,341.02v-.45c0-27.14-19.91-49.75-47.95-49.75s-47.49,22.16-47.49,49.3v.45c0,27.14,19.9,49.76,47.95,49.76s47.5-22.16,47.5-49.31Z"/>
  <path class="cls-2" d="M1860.26,351.88v-90.47h34.83v89.57c0,26.01,12.67,39.13,34.15,39.13s34.16-12.67,34.16-38v-90.7h34.83v89.34c0,47.95-26.92,71.47-69.44,71.47s-68.53-23.52-68.53-70.34Z"/>
  <path class="cls-2" d="M2031.48,261.41h32.11l74.18,97.49v-97.49h34.38v158.32h-29.63l-76.67-100.65v100.65h-34.37v-158.32Z"/>
  <path class="cls-2" d="M2207.9,261.41h61.74c49.76,0,84.14,34.16,84.14,78.71v.45c0,44.56-34.38,79.16-84.14,79.16h-61.74v-158.32ZM2242.73,292.85v95.45h26.91c28.27,0,47.72-19.22,47.72-47.27v-.45c0-28.04-19.45-47.72-47.72-47.72h-26.91Z"/>
  <path class="cls-3" d="M2502.38,260.28h32.12l67.86,159.45h-36.42l-14.48-35.51h-66.95l-14.48,35.51h-35.51l67.85-159.45ZM2539.02,353.47l-21.03-51.34-21.03,51.34h42.07Z"/>
  <path class="cls-3" d="M2626.1,261.41h34.83v158.32h-34.83v-158.32Z"/>
  <g>
    <path class="cls-1" d="M338.63,687.7h-179.93C71.05,687.7,0,616.65,0,529v-182.87c0-42.73,32.83-79.49,75.51-81.5,45.57-2.15,83.19,34.16,83.19,79.26v132.21c0,29.22,23.68,52.9,52.9,52.9h128.4c101.66,0,188.81-83.13,189-184.8.19-101.79-82.19-184.75-183.76-185.5-43.63-.32-80.47-35.23-80.73-78.86-.27-44.05,35.36-79.85,79.35-79.85,191.38,0,346.74,157.16,343.81,349.19-2.88,188.67-160.34,338.5-349.03,338.5Z"/>
    <path class="cls-2" d="M449.65,344.5c-.35,57.93-47.2,104.79-105.14,105.15-56.11.34-103.72-44.67-106.34-100.72-.3-6.35-.03-12.59.75-18.67,3.12-24.29-4.17-48.75-21.48-66.07l-31-31c-17.79-17.79-42.87-25.38-67.85-22.36-4.19.51-8.46.77-12.79.77C45.52,211.6-3.03,161.16.15,100.13,2.93,46.71,46.71,2.93,100.13.15c61.03-3.18,111.47,45.37,111.47,105.65,0,4.33-.26,8.59-.77,12.79-3.01,24.98,4.57,50.06,22.36,67.85l31,31c17.32,17.32,41.77,24.6,66.06,21.48,6.08-.78,12.31-1.04,18.67-.75,56.05,2.62,101.06,50.22,100.72,106.33Z"/>
  </g>
</svg>